<svg version="1.1" xmlns="http://www.w3.org/2000/svg" viewBox="0 0 137.144 137.144" xmlns:xlink="http://www.w3.org/1999/xlink" enable-background="new 0 0 137.144 137.144">
  <defs>
    <linearGradient id="colorGradient" x1="0%" y1="0%" x2="100%" y2="0%">
      <stop offset="0%" style="stop-color: red; stop-opacity: 1" />
      <stop offset="100%" style="stop-color: blue; stop-opacity: 1" />
    </linearGradient>
  </defs>
  <g>
    <g>
      <path d="m27.371,85.679l10.287,10.268 20.574-20.535-10.287-10.269-20.574,20.536zm82.344-85.679h-82.286c-15.149,0-27.429,12.28-27.429,27.429v82.286c0,15.149 12.28,27.429 27.429,27.429h82.286c15.149,0 27.429-12.28 27.429-27.429v-82.286c0-15.149-12.28-27.429-27.429-27.429zm13.715,102.858c0,11.361-9.21,20.572-20.571,20.572h-68.573c-11.362,0-20.572-9.21-20.572-20.572v-68.572c0-11.362 9.21-20.572 20.572-20.572h68.572c11.361,0 20.571,9.21 20.571,20.572v68.572zm-48-6.857h34.286v-13.715h-34.286v13.715zm-48.058-51.394l20.573,20.536 10.287,10.269 10.286-10.269-30.86-30.804-10.286,10.268" fill="url(#colorGradient)"/>
    </g>
  </g>
</svg>

